<?xml version="1.0" encoding="UTF-8"?>
<svg width="1200pt" height="1200pt" version="1.1" viewBox="0 0 1200 1200" xmlns="http://www.w3.org/2000/svg">
 <g>
  <path d="m1092 150c-144-228-492-192-588 60-18 48-60 84-120 102-294 90-420 432-252 678 78 120 204 192 348 210 306 36 564-216 522-516-6-60 6-114 42-144 114-114 120-276 48-390zm-132 300c-66 60-90 150-78 252 30 222-162 402-390 378-108-12-204-66-258-156-120-180-24-426 192-492 96-30 168-96 198-174 54-156 276-180 372-36 42 60 36 162-36 228z"/>
  <path d="m540 546c-96 0-174 78-174 174s78 174 174 174 174-78 174-174-78-174-174-174zm0 228c-30 0-54-24-54-54s24-54 54-54 54 24 54 54-24 54-54 54z"/>
 </g>
</svg>
