<?xml version="1.0" encoding="UTF-8"?>
<svg width="1200pt" height="1200pt" version="1.1" viewBox="0 0 1200 1200" xmlns="http://www.w3.org/2000/svg">
 <defs>
  <clipPath id="a">
   <path d="m222.14 222.14h755.71v755.71h-755.71z"/>
  </clipPath>
 </defs>
 <g clip-path="url(#a)">
  <path d="m600 222.14c208.69 0 377.86 169.17 377.86 377.86 0 208.69-169.17 377.86-377.86 377.86-208.68 0-377.86-169.17-377.86-377.86 0-208.68 169.17-377.86 377.86-377.86zm0 75.57c-166.95 0-302.29 135.34-302.29 302.29 0 166.95 135.34 302.29 302.29 302.29 166.95 0 302.29-135.34 302.29-302.29 0-166.95-135.34-302.29-302.29-302.29zm170.38 175.88 3.2969 2.9375c13.703 13.703 14.68 35.309 2.9375 50.141l-2.9375 3.2969-187.03 187.03c-13.699 13.703-35.309 14.684-50.141 2.9375l-3.293-2.9375-106.88-106.87c-14.758-14.758-14.758-38.684 0-53.438 13.703-13.703 35.309-14.684 50.141-2.9375l3.2969 2.9375 80.156 80.156 160.31-160.31c13.703-13.703 35.309-14.68 50.141-2.9375z"/>
 </g>
</svg>
