<?xml version="1.0" encoding="UTF-8"?>
<svg width="1200pt" height="1200pt" version="1.1" viewBox="0 0 1200 1200" xmlns="http://www.w3.org/2000/svg">
 <g>
  <path d="m776.51 423.49c-14.648-14.648-38.379-14.648-53.027 0l-123.48 123.48-123.49-123.49c-14.648-14.648-38.379-14.648-53.027 0s-14.648 38.379 0 53.027l123.49 123.49-123.49 123.49c-14.648 14.648-14.648 38.379 0 53.027 7.3242 7.3242 16.922 10.984 26.516 10.984s19.191-3.6602 26.512-10.988l123.49-123.48 123.49 123.49c7.3203 7.3242 16.918 10.984 26.512 10.984s19.191-3.6602 26.512-10.988c14.648-14.648 14.648-38.379 0-53.027l-123.48-123.48 123.49-123.49c14.645-14.648 14.645-38.375-0.003906-53.023z"/>
  <path d="m862.5 75h-525c-144.73 0-262.5 117.75-262.5 262.5v525c0 144.75 117.77 262.5 262.5 262.5h525c144.73 0 262.5-117.75 262.5-262.5v-525c0-144.75-117.77-262.5-262.5-262.5zm187.5 787.5c0 103.38-84.117 187.5-187.5 187.5h-525c-103.38 0-187.5-84.117-187.5-187.5v-525c0-103.38 84.117-187.5 187.5-187.5h525c103.38 0 187.5 84.117 187.5 187.5z"/>
 </g>
</svg>
