<?xml version="1.0" encoding="UTF-8"?>
<svg width="1200pt" height="1200pt" version="1.1" viewBox="0 0 1200 1200" xmlns="http://www.w3.org/2000/svg">
 <g>
  <path fill="#FF0000" d="m206.25 331.77h5.8594v605.73c0 103.38 84.117 187.5 187.5 187.5h400.78c103.38 0 187.5-84.117 187.5-187.5v-605.73h5.8594c20.727 0 37.5-16.789 37.5-37.5 0-20.711-16.773-37.5-37.5-37.5h-172.3c-18.383-103.08-110.55-181.77-221.45-181.77s-203.06 78.691-221.45 181.77h-172.3c-20.711 0-37.5 16.789-37.5 37.5 0 20.707 16.789 37.5 37.5 37.5zm393.75-181.77c69.117 0 126.86 45.457 144.18 106.77h-288.36c17.324-61.312 75.078-106.77 144.18-106.77zm312.89 181.77v605.73c0 62.035-50.465 112.5-112.5 112.5h-400.78c-62.035 0-112.5-50.465-112.5-112.5v-605.73z"/>
  <path fill="#FF0000" d="m687.6 926.73c20.727 0 37.5-16.789 37.5-37.5v-396.55c0-20.711-16.773-37.5-37.5-37.5-20.727 0-37.5 16.789-37.5 37.5v396.55c0 20.707 16.773 37.5 37.5 37.5z"/>
  <path fill="#FF0000" d="m512.4 926.73c20.711 0 37.5-16.789 37.5-37.5v-396.55c0-20.711-16.789-37.5-37.5-37.5-20.711 0-37.5 16.789-37.5 37.5v396.55c0 20.707 16.789 37.5 37.5 37.5z"/>
 </g>
</svg>
