<?xml version="1.0" encoding="UTF-8"?>
<svg width="1200pt" height="1200pt" version="1.1" viewBox="0 0 1200 1200" xmlns="http://www.w3.org/2000/svg">
 <g>
  <path d="m382.95 632.7-34.605 126.88c-7.1406 26.293 0.074218 53.484 19.336 72.746 14.391 14.375 33.141 22.027 52.66 22.027 6.6641 0 13.441-0.89844 20.105-2.7109l126.86-34.59h0.035156c31.383-8.5703 60.168-25.285 83.203-48.32l429.05-429.04c60.426-60.441 60.426-158.81 0-219.29-60.496-60.461-158.86-60.461-219.29 0l-429.05 429.05c-22.996 23.016-39.699 51.797-48.305 83.238zm643.62-459.27c31.199 31.219 31.199 82.012 0 113.23l-429.05 429.04c-13.844 13.824-31.09 23.84-49.914 28.984l-126.89 34.609 34.605-126.84c5.1641-18.895 15.16-36.184 28.969-49.988l429.05-429.04c15.602-15.602 36.109-23.402 56.617-23.402 20.504 0 41.012 7.8008 56.613 23.402z"/>
  <path d="m262.5 1125h588.76c103.38 0 187.5-84.117 187.5-187.5v-360.37c0-20.711-16.773-37.5-37.5-37.5-20.727 0-37.5 16.789-37.5 37.5v360.37c0 62.035-50.465 112.5-112.5 112.5h-588.76c-62.035 0-112.5-50.465-112.5-112.5v-588.76c0-62.035 50.465-112.5 112.5-112.5h360.39c20.727 0 37.5-16.789 37.5-37.5 0-20.711-16.773-37.5-37.5-37.5h-360.39c-103.38 0-187.5 84.117-187.5 187.5v588.76c0 103.38 84.117 187.5 187.5 187.5z"/>
 </g>
</svg>
