<?xml version="1.0" encoding="UTF-8"?>
<svg width="1200pt" height="1200pt" version="1.1" viewBox="0 0 1200 1200" xmlns="http://www.w3.org/2000/svg">
 <g>
  <path d="m862.5 75h-525c-144.75 0-262.5 117.75-262.5 262.5v525c0 144.75 117.75 262.5 262.5 262.5h112.5c20.711 0 37.5-16.789 37.5-37.5s-16.789-37.5-37.5-37.5h-112.5c-103.38 0-187.5-84.117-187.5-187.5v-525c0-103.38 84.117-187.5 187.5-187.5h525c103.38 0 187.5 84.117 187.5 187.5v525c0 103.38-84.117 187.5-187.5 187.5h-112.5c-20.711 0-37.5 16.789-37.5 37.5s16.789 37.5 37.5 37.5h112.5c144.75 0 262.5-117.75 262.5-262.5v-525c0-144.75-117.75-262.5-262.5-262.5z"/>
  <path d="m600 1125c20.711 0 37.5-16.789 37.5-37.5v-637.5l85.711 87.484c7.3438 7.5078 17.066 11.262 26.789 11.262 9.4648 0 18.953-3.5703 26.238-10.711 14.793-14.504 15.031-38.23 0.55078-53.027l-150-153.09c-0.007812-0.007813-0.015624-0.007813-0.019531-0.015625-6.8125-6.9766-16.254-11.359-26.77-11.359s-19.957 4.3828-26.77 11.355c-0.007813 0.007812-0.015625 0.007812-0.019531 0.015624l-150 153.09c-14.484 14.793-14.246 38.527 0.55078 53.027 14.793 14.484 38.543 14.281 53.027-0.55078l85.711-87.48v637.5c0 20.711 16.789 37.5 37.5 37.5z"/>
 </g>
</svg>
